<svg width="43" height="45" viewBox="0 0 43 45" fill="none" xmlns="http://www.w3.org/2000/svg">
<path d="M21.5 0C30.861 0 38.8227 6.2614 41.7744 15H39.6562C36.7975 7.35383 29.6994 2 21.5 2C10.8152 2 2 11.0915 2 22.5C2 33.9085 10.8152 43 21.5 43C30.397 43 37.9966 36.6961 40.291 28H42.3516C40.0065 37.7676 31.561 45 21.5 45C9.62588 45 0 34.9264 0 22.5C0 10.0736 9.62588 0 21.5 0ZM17.6572 15.9287C18.0478 15.5385 18.6809 15.5383 19.0713 15.9287C19.4617 16.3191 19.4615 16.9522 19.0713 17.3428L14.4141 22H43V24H14.4141L19.0713 28.6572C19.4615 29.0478 19.4617 29.6809 19.0713 30.0713C18.6809 30.4617 18.0478 30.4615 17.6572 30.0713L11.293 23.707C10.9024 23.3165 10.9024 22.6835 11.293 22.293L17.6572 15.9287Z" fill="white"/>
</svg>
