<svg width="1115" height="281" viewBox="0 0 1115 281" fill="none" xmlns="http://www.w3.org/2000/svg">
<rect y="21.7198" width="1112" height="258.913" rx="20" fill="#0567B2"/>
<path d="M1082.77 55.3949C1080.79 60.4513 1075.64 63.4822 1070.87 61.2495C1066.11 59.0211 1064.44 52.8182 1066.27 47.708L1066.21 47.6786L1078.54 13.3478L1078.6 13.3758C1081.52 6.13151 1088.83 2.03436 1095.42 5.11852C1102.12 8.2556 1104.59 17.1883 1101.78 24.6642L1097.36 22.5965C1099.4 17.1589 1097.35 11.6608 1093.61 9.91144C1089.98 8.21105 1085.19 10.2587 1083.05 15.3696L1083.08 15.3833L1070.75 49.715L1070.71 49.6993C1069.61 52.7602 1070.84 55.5973 1072.68 56.4561C1074.49 57.3034 1077.12 56.3311 1078.32 53.4021L1078.25 53.3672L1089.03 23.3355L1089.11 23.3704C1089.38 22.6373 1089.43 21.9862 1089.38 21.5471C1089.05 21.8194 1088.66 22.3281 1088.38 23.0743L1088.43 23.0988L1080.9 42.8743C1080.39 44.2343 1078.95 44.856 1077.7 44.2635C1076.45 43.6708 1075.85 42.0883 1076.37 40.7282L1083.89 20.953L1083.97 20.9882C1084.57 19.4128 1085.52 18.0488 1086.7 17.1638C1087.78 16.3454 1089.34 15.7648 1090.95 16.3604L1091.28 16.4959L1091.59 16.658C1093.1 17.5235 1093.82 19.1694 1094.06 20.6085C1094.31 22.1321 1094.12 23.8073 1093.56 25.3617L1093.62 25.3878L1082.83 55.4204L1082.77 55.3949Z" fill="black"/>
</svg>
