<svg width="21" height="20" viewBox="0 0 21 20" fill="none" xmlns="http://www.w3.org/2000/svg">
<path d="M3.6228 0.535681C4.42962 -0.218717 5.69001 -0.170343 6.43726 0.643103L8.87476 3.29642C9.62181 4.10988 9.57311 5.38096 8.76636 6.13529L6.98999 7.79642C8.94739 11.1504 11.0826 12.9951 12.9958 13.9195C13.0244 13.8869 13.0528 13.8539 13.0837 13.8228L15.0261 11.8736C15.8058 11.0912 17.0671 11.0948 17.8425 11.8814L20.3708 14.4449C21.1463 15.2315 21.1427 16.5043 20.363 17.2867L18.4207 19.2349C17.9746 19.6825 17.3708 19.8715 16.7908 19.8052C16.792 19.8103 16.7934 19.8158 16.7947 19.8208C5.65583 17.8833 1.43035 8.35684 0.949951 3.83549C0.958344 3.83125 0.968001 3.82794 0.978271 3.82377C0.99471 3.30567 1.20824 2.79393 1.61499 2.41361L3.6228 0.535681Z" fill="#0265B1"/>
</svg>
