<svg width="21" height="21" viewBox="0 0 21 21" fill="none" xmlns="http://www.w3.org/2000/svg">
<path d="M10.5 0C16.299 0 21 4.70101 21 10.5C21 16.299 16.299 21 10.5 21C4.70101 21 0 16.299 0 10.5C0 4.70101 4.70101 0 10.5 0ZM11.5771 4.57715H9.42285V3.07715C6.14288 3.54892 3.54995 6.1429 3.07812 9.42285H4.57715V11.5771H3.07812C3.54995 14.8571 6.14295 17.4501 9.42285 17.9219V16.4229H11.5771V17.9219C14.8571 17.4501 17.4501 14.8571 17.9219 11.5771H16.4229V9.42285H17.9219C17.45 6.1429 14.8571 3.54892 11.5771 3.07715V4.57715ZM13.7588 5.50977L11.8555 9.46191C12.1821 9.8007 12.3846 10.2608 12.3848 10.7686C12.3848 10.8845 12.3716 10.9982 12.3516 11.1084L14.9326 13.5068L13.8896 14.6289L11.4707 12.3809C11.1868 12.5522 10.8557 12.6533 10.5 12.6533C9.45921 12.6533 8.61523 11.8094 8.61523 10.7686C8.61558 9.75089 9.42268 8.92269 10.4316 8.88672L12.3779 4.8457L13.7588 5.50977Z" fill="#0567B2"/>
</svg>
