<svg width="121" height="120" viewBox="0 0 121 120" fill="none" xmlns="http://www.w3.org/2000/svg">
<path d="M94.1787 7.69238H116.5V16.9229L116.451 17.6914C115.403 32.6924 108.25 59.8292 87.623 62.8721C82.8517 69.4089 75.8187 74.1891 67.6729 76.0576V100H71.8584L83.0186 112.308H88.5986V120H31.4014V112.308H36.9814L48.1416 100H52.3271V76.0576C44.1085 74.1724 37.0211 69.3242 32.248 62.6973C11.8383 58.9978 4.56239 31.4506 3.5 16.9229V7.69238H25.8213V0H94.1787V7.69238ZM32.7959 9.23047C32.7959 35.0766 47.2121 56.9229 54.4199 64.6152C48.2817 52.9229 47.2118 22.8202 47.4443 9.23047H32.7959ZM11.8701 16.9229C12.2834 40.1681 20.1211 49.0922 26.9922 51.6377C26.23 48.8018 25.8213 45.8208 25.8213 42.7441V16.9229H11.8701ZM94.1787 42.7441C94.1787 45.4927 93.8519 48.1648 93.2393 50.7256C99.6402 47.3451 106.564 38.0795 108.13 16.9229H94.1787V42.7441Z" fill="#0567B2"/>
</svg>
