<svg width="120" height="120" viewBox="0 0 120 120" fill="none" xmlns="http://www.w3.org/2000/svg">
<g clip-path="url(#clip0_138_430)">
<path d="M72.3799 24.0454L88.9531 31.688L89.1299 31.769L89.2051 31.9478L101.808 61.8813L101.858 62.0024L101.843 62.1323L101.498 65.105L101.481 65.2476L101.392 65.3589L92.1572 76.9155C93.7925 79.0507 94.9986 80.6641 95.5332 81.4614L95.7344 81.7739L95.791 81.8696L95.8018 81.981C96.2924 86.9814 95.2395 89.9571 93.5801 91.5991C91.9231 93.2383 89.7691 93.4422 88.2969 93.1343L88.1318 93.1001L88.0215 92.9722C84.8531 89.3233 78.6351 82.143 76.2002 79.2612L75.4082 78.312C75.0852 77.9149 74.8795 77.7823 74.7871 77.7485C74.7417 77.8075 74.6804 77.9399 74.6348 78.1587C74.6012 78.3202 74.582 78.4995 74.5742 78.6714L87.5762 94.4497L87.7861 94.7046L87.6348 94.9976C87.2236 95.792 86.4963 97.063 85.6436 98.3091C84.8515 99.4664 83.9216 100.647 83.0127 101.392L82.8311 101.535C80.8762 103.014 78.4153 102.917 77.4102 102.685L77.2451 102.647L77.1377 102.516C75.2948 100.285 72.4347 96.7792 69.8457 93.5122C67.3104 90.313 65.0032 87.3028 64.1855 85.9595C63.6061 85.411 63.1608 85.1035 62.8311 84.9507C62.4947 84.795 62.3281 84.8205 62.2637 84.8442C62.2019 84.8673 62.1289 84.9281 62.0654 85.0796C62.0178 85.1937 61.9861 85.3354 61.9736 85.4829C63.9016 88.1272 66.7123 91.9446 69.1064 95.1128C70.3249 96.7252 71.4336 98.1679 72.2617 99.2007C72.6633 99.7015 72.9961 100.101 73.2402 100.375L73.8799 99.2671V101.136C73.8798 101.188 73.873 101.297 73.8076 101.41C73.7948 101.432 73.7772 101.451 73.7617 101.47C71.2572 105.716 66.5528 106.174 64.5039 105.877L64.2949 105.847L64.1709 105.676C62.9655 104.017 61.1236 101.563 59.5176 99.5894C58.7132 98.6011 57.9757 97.7432 57.4111 97.1685C57.2328 96.9869 57.0766 96.8416 56.9482 96.731C56.96 96.9282 57.0057 97.1757 57.082 97.4536C57.252 98.0722 57.5412 98.7509 57.7607 99.1929L60.1641 102.992L60.4287 103.412L60.0127 103.68C58.6226 104.576 57.5321 105.019 56.7041 105.191C56.0742 105.321 55.554 105.299 55.1719 105.159C55.1553 105.163 55.1399 105.168 55.126 105.171C54.969 105.204 54.7498 105.218 54.4678 105.22C54.0361 105.223 53.3904 105.197 52.4502 105.123L51.4082 105.031C49.4755 104.848 47.8541 103.898 46.627 102.817C45.5743 101.889 44.7869 100.844 44.3135 100.042C42.3353 100.665 40.7281 100.754 39.4355 100.427C38.044 100.075 37.0657 99.2543 36.4131 98.2124C35.2152 96.2988 35.1102 93.6459 35.3672 91.6821C33.0274 90.6566 31.7002 88.876 31.0049 87.0542C30.363 85.3716 30.2532 83.6449 30.3633 82.4116C27.6111 81.6758 26.1849 79.7485 25.5469 77.6431C24.9145 75.5546 25.0449 73.2745 25.3701 71.729L18.0664 60.8677L17.9082 60.6313L18.0293 60.3745L19.2383 57.8267L19.2471 57.8081L19.2578 57.7896L35.4854 29.979L35.5889 29.8032L35.7842 29.7495C40.0889 28.5613 44.043 28.5608 47.0547 28.9663C48.5603 29.169 49.836 29.4735 50.8066 29.7847C51.7523 30.0879 52.4694 30.4167 52.8076 30.6938L52.9346 30.7886C53.2395 30.9968 53.613 31.122 53.9873 31.187C54.2744 31.2368 54.5443 31.2461 54.7539 31.2397L71.9775 24.0386L72.1807 23.9536L72.3799 24.0454ZM54.6738 104.712L54.6797 104.741C54.6946 104.791 54.7178 104.831 54.7373 104.861L54.8525 104.702C54.8007 104.706 54.7414 104.71 54.6738 104.712ZM50.8711 93.4097C49.0596 93.4098 47.5908 95.3109 47.5908 97.6558C47.5909 100.001 49.0597 101.902 50.8711 101.902C52.6826 101.902 54.1513 100.001 54.1514 97.6558C54.1514 95.3109 52.6826 93.4097 50.8711 93.4097ZM46.9824 85.5073C45.4204 83.7749 42.2955 84.9041 40.0029 88.0298C37.7103 91.1556 37.1187 95.0942 38.6807 96.8267C40.2426 98.5587 43.3667 97.4295 45.6592 94.3042C47.9517 91.1784 48.5444 87.2398 46.9824 85.5073ZM40.5186 77.6108C39.0832 76.0189 36.3744 76.8341 34.4688 79.4321C32.5632 82.0302 32.1821 85.427 33.6172 87.019C35.0526 88.611 37.7613 87.796 39.667 85.1978C41.5725 82.5997 41.9535 79.203 40.5186 77.6108ZM30.5 70.9067C28.6886 70.9069 27.2207 72.8081 27.2207 75.1528C27.2208 77.4975 28.6887 79.3987 30.5 79.3989C32.3115 79.3989 33.7802 77.4976 33.7803 75.1528C33.7803 72.8079 32.3115 70.9067 30.5 70.9067ZM56.2109 34.2671L54.8105 35.4146L45.8818 59.4888L45.874 59.5083C45.6597 60.0192 45.4845 60.6313 45.4307 61.23C45.3766 61.8327 45.4487 62.3823 45.6797 62.8071C45.9005 63.2124 46.2932 63.5569 46.999 63.7222C47.725 63.8919 48.7865 63.8717 50.2998 63.4995C51.6808 63.1597 52.9544 62.0629 54.1074 60.3901C55.255 58.7249 56.2416 56.5493 57.0684 54.1724C58.7212 49.4203 59.7073 43.9497 60.1074 40.3657L60.1572 39.9214H64.9785L65.0635 40.3149L65.7295 43.3862C70.4206 49.2615 77.51 58.179 83.626 65.9585C85.6621 68.5485 87.5911 71.0141 89.2881 73.1987L98.5166 63.2437L86.46 34.2183L72.0664 27.9712H70.0352L56.2109 34.2671ZM103.202 14.1216L119.951 56.644L120.102 57.0288L119.774 57.2388L109.76 63.6694L109.604 63.77L104.734 62.8267L104.623 62.5542L89.8574 26.2104L89.7842 26.0327L89.8428 25.8569L91.5557 20.6089L91.6094 20.4429L91.7539 20.355L102.472 13.8472L102.974 13.5425L103.202 14.1216ZM22.9512 11.3833L32.792 19.8755L32.9238 19.9897L32.9561 20.1616L33.9922 25.6812L34.0264 25.8647L33.9326 26.0259L14.5977 59.1431L14.4531 59.3911H9.48438L9.3418 59.2612L0.191406 50.9819L-0.105469 50.7134L0.0927734 50.3647L22.1904 11.5151L22.4912 10.9858L22.9512 11.3833ZM113.457 51.1304C112.242 50.895 111.101 51.9236 110.908 53.4272C110.716 54.9305 111.545 56.3404 112.76 56.5757C113.974 56.8104 115.115 55.7818 115.308 54.2788C115.5 52.7755 114.672 51.366 113.457 51.1304ZM7.25977 46.1528C6.0204 46.1529 5.0157 47.3885 5.01562 48.9126C5.01582 50.4365 6.02047 51.6723 7.25977 51.6724C8.49912 51.6724 9.50371 50.4366 9.50391 48.9126C9.50383 47.3885 8.49919 46.1528 7.25977 46.1528Z" fill="#0567B2"/>
</g>
<defs>
<clipPath id="clip0_138_430">
<rect width="120" height="120" fill="white"/>
</clipPath>
</defs>
</svg>
