<svg width="120" height="120" viewBox="0 0 120 120" fill="none" xmlns="http://www.w3.org/2000/svg">
<path d="M60.0158 0.00827419C64.311 0.19483 67.7957 3.4904 68.7238 7.82175C69.6837 7.97483 70.6354 8.15292 71.5773 8.35691C74.2491 4.65369 78.9439 3.05966 83.0011 4.78171C86.9787 6.47008 89.0893 10.8134 88.4093 15.2182C89.3315 15.7969 90.2346 16.4038 91.1174 17.0366C94.691 15.0351 99.0891 15.2639 102.095 17.9438C105.387 20.8798 105.949 25.8119 103.735 29.811C104.114 30.3543 104.484 30.9054 104.843 31.4634C109.932 31.1231 114.495 34.344 115.332 39.0815C115.929 42.4598 114.482 45.7631 111.826 47.8969C112.095 49.0371 112.326 50.1916 112.52 51.3589C116.238 52.2101 119.208 55.001 119.867 58.7319C120.718 63.5462 117.417 68.208 112.384 69.5503C112.298 70.0246 112.205 70.4974 112.107 70.9673C115.692 73.4918 117.364 78.0294 115.906 82.2007C114.338 86.6885 109.671 89.2526 104.937 88.5161C104.717 88.8605 104.493 89.2025 104.265 89.5415C107.528 94.0403 106.878 100.123 102.774 103.203C99.4286 105.712 94.8105 105.461 91.3722 102.906C90.3159 103.673 89.2296 104.401 88.1164 105.089C88.5453 108.416 87.3406 111.753 84.634 113.784C80.6587 116.766 74.886 115.85 71.4318 111.8C70.9647 111.9 70.4952 111.993 70.0236 112.081C69.033 116.698 65.1754 120.099 60.6476 119.998C56.3191 119.9 52.7458 116.633 51.756 112.277C50.8831 112.135 50.0174 111.971 49.1593 111.787C46.4973 115.951 41.4045 117.747 37.132 115.801C33.073 113.953 31.0762 109.328 32.0822 104.805C31.3729 104.356 30.6744 103.892 29.9885 103.411C25.8314 105.649 20.7439 104.916 17.8859 101.405C15.4361 98.3945 15.3186 94.1942 17.2472 90.7788C16.8272 90.1907 16.4189 89.5935 16.0226 88.9878C12.2415 89.6259 8.41083 88.1652 6.382 84.9448C3.85338 80.9305 4.99877 75.5724 8.86443 72.3862C8.55474 71.0882 8.29327 69.7711 8.08122 68.438C4.15204 67.7843 0.922971 64.987 0.164231 61.1284C-0.836564 56.0384 2.84002 51.0302 8.37517 49.9419L8.38982 49.9389C8.497 49.3859 8.61223 48.8353 8.7365 48.2885C4.88873 45.8997 2.97029 41.3759 4.36247 37.2251C5.90026 32.641 10.934 30.1292 15.9416 31.2622C16.4692 30.4507 17.018 29.6544 17.5881 28.8745C15.0763 25.0143 15.3077 20.0158 18.426 16.8579C21.6527 13.5902 26.8893 13.3885 30.8332 16.1352C31.0658 15.9787 31.3001 15.8243 31.5353 15.6714C30.4082 11.9817 31.3807 7.97125 34.342 5.54831C38.3568 2.26364 44.5071 3.14055 48.0793 7.50632C48.3238 7.80524 48.5502 8.11261 48.758 8.42722C49.301 8.3061 49.8475 8.19362 50.3967 8.08933C51.3582 3.3062 55.3729 -0.193183 60.0158 0.00827419ZM60.4631 19.6499C37.9232 19.65 19.6507 37.9227 19.6506 60.4624L19.6642 61.5151C20.214 83.218 37.7063 100.71 59.4093 101.26L60.4631 101.274C82.651 101.274 100.703 83.5682 101.262 61.5151L101.276 60.4624C101.275 38.275 83.5697 20.2225 61.5168 19.6635L60.4631 19.6499ZM60.4631 23.6499C80.7939 23.6499 97.2754 40.1318 97.2756 60.4624C97.2753 80.7929 80.7939 97.2739 60.4631 97.2739C40.1323 97.2738 23.6508 80.7928 23.6506 60.4624C23.6507 40.1319 40.1323 23.65 60.4631 23.6499ZM80.5773 37.3852C78.2252 35.9385 75.1451 36.6728 73.6984 39.0249L58.34 63.9946L47.466 49.2573C45.8265 47.0355 42.6958 46.5634 40.4738 48.2026L38.7902 49.4458C36.5683 51.0853 36.0961 54.215 37.7355 56.437L53.3967 77.6626C54.3784 78.993 55.8951 79.6948 57.4308 79.6928C59.7369 80.8961 62.6135 80.1282 63.9972 77.8784L83.9992 45.3598C85.4458 43.0078 84.7115 39.9286 82.3595 38.4819L80.5773 37.3852Z" fill="#0567B2"/>
</svg>
