<svg width="22" height="23" viewBox="0 0 22 23" fill="none" xmlns="http://www.w3.org/2000/svg">
<path d="M2.89354 1.52801C3.69749 0.770733 4.95297 0.818541 5.69726 1.63445L8.3955 4.59344C9.13939 5.40954 9.09078 6.68477 8.2871 7.44207L6.34765 9.26824C8.39836 12.8083 10.6358 14.7559 12.6406 15.7331C12.6485 15.7248 12.656 15.7158 12.6641 15.7077L14.8476 13.5007C15.6244 12.7154 16.8808 12.7181 17.6533 13.5075L20.4502 16.3659C21.2227 17.1554 21.2192 18.4322 20.4424 19.2175L18.2588 21.4255C17.69 22.0004 16.8648 22.1501 16.1601 21.8805C5.39675 19.7625 0.962511 10.7618 0.120107 5.82781C-0.146059 5.08773 0.0318879 4.22472 0.636709 3.65496L2.89354 1.52801Z" fill="#0265B1"/>
</svg>
