<svg width="16" height="21" viewBox="0 0 16 21" fill="none" xmlns="http://www.w3.org/2000/svg">
<path d="M8 -0.000183105C12.4182 -5.23504e-05 16 3.54944 16 7.92755C15.9999 9.98138 15.211 11.8524 13.918 13.2606L9.69922 20.0555C8.9168 21.3151 7.08316 21.3151 6.30078 20.0555L2.08105 13.2606C0.788187 11.8525 8.06368e-05 9.9812 0 7.92755C0 3.54936 3.58172 -0.000183105 8 -0.000183105ZM8 3.96368C5.79086 3.96368 4 5.73845 4 7.92755C4.00017 10.1165 5.79097 11.8914 8 11.8914C10.2089 11.8913 11.9998 10.1164 12 7.92755C12 5.73854 10.209 3.96381 8 3.96368Z" fill="#0C66AE"/>
</svg>
