<svg width="120" height="120" viewBox="0 0 120 120" fill="none" xmlns="http://www.w3.org/2000/svg">
<g clip-path="url(#clip0_138_451)">
<path d="M60 95.3853C67.3636 95.3853 73.3328 100.896 73.333 107.693C73.3327 114.49 67.3636 120.001 60 120.001C52.6364 120.001 46.6673 114.49 46.667 107.693C46.6672 100.896 52.6363 95.3853 60 95.3853ZM60 -0.000488281C79.3299 -0.000488281 94.9999 14.4651 95 32.3081C94.9999 36.0812 94.2957 39.7027 93.0078 43.0688C93.0876 43.7853 92.9122 44.5439 92.4082 45.2046L91.5186 46.3706C89.8546 49.5424 87.6441 52.4239 85.002 54.9136L62.3857 84.5659C61.1851 86.1396 58.8149 86.1396 57.6143 84.5659L34.9971 54.9136C32.355 52.4239 30.1443 49.5424 28.4805 46.3706L27.5918 45.2046C27.0878 44.5439 26.9115 43.7852 26.9912 43.0688C25.7034 39.7028 25.0001 36.0811 25 32.3081C25.0001 14.4651 40.6701 -0.000488281 60 -0.000488281ZM60 12.3081C47.1135 12.3081 36.6673 21.951 36.667 33.8462C36.6673 45.7414 47.1135 55.3852 60 55.3853C72.8865 55.3853 83.3327 45.7414 83.333 33.8462C83.3327 21.951 72.8865 12.3081 60 12.3081ZM60 23.0776C66.4432 23.0777 71.6669 27.8986 71.667 33.8462C71.667 39.7939 66.4433 44.6157 60 44.6157C53.5567 44.6157 48.333 39.7939 48.333 33.8462C48.3331 27.8986 53.5568 23.0776 60 23.0776Z" fill="#0567B2"/>
</g>
<defs>
<clipPath id="clip0_138_451">
<rect width="120" height="120" fill="white"/>
</clipPath>
</defs>
</svg>
