<svg width="122" height="121" viewBox="0 0 122 121" fill="none" xmlns="http://www.w3.org/2000/svg">
<path d="M38.0752 78.1404L57.291 74.0066L57.6484 73.9294L58.002 74.0261L91.3926 83.1511L92.1729 82.8884L110.319 71.8787L110.573 71.7244L110.867 71.6785C113.034 71.3414 116.326 71.4848 118.667 73.4441C121.189 75.5551 122.038 79.2433 120.3 84.7117L120.139 85.2166L119.696 85.5085L74.8916 115.097L74.4404 115.396L73.9014 115.337L38.0752 111.409V120.432H12.6729V115.808H0.786133V75.3601H12.6729V71.199H38.0752V78.1404ZM116.741 75.7439C115.434 74.6503 113.352 74.3899 111.609 74.6042L93.5879 85.5388L93.4463 85.6257L93.2891 85.6785L93.0723 85.7507C93.1994 87.552 92.9933 89.8222 92.0195 91.8982C90.7404 94.6248 88.1895 96.8865 83.8096 97.3083L83.5254 97.3357L83.25 97.2566L81.8867 96.8679C81.8424 96.8554 81.7967 96.8428 81.751 96.8298L61.7744 91.2498L62.1777 89.8044L62.5801 88.3601H62.582L63.2266 88.5398C68.7381 90.0729 78.6331 92.8301 82.7031 93.9812L83.7959 94.2917C86.9146 93.9142 88.488 92.3625 89.3037 90.6238C90.0264 89.0828 90.1851 87.3082 90.0771 85.9011L57.5635 77.0154L38.0752 81.2087V108.39L73.6895 112.296L117.593 83.3025C118.92 78.7656 117.896 76.711 116.741 75.7439ZM92.9385 10.7L95.1855 11.7097L101.311 5.10327L102.334 3.99976L103.435 5.02612L115.321 16.1228L116.45 17.1755L115.364 18.2742L108.801 24.9099L109.743 26.8152H120.37V46.4587H109.791L108.737 48.8552L114.518 55.5359L115.426 56.5847L114.45 57.572L103.478 68.6677L102.484 69.6716L101.422 68.741L94.9883 63.1023H92.9385V74.6609H73.9365V62.572L71.627 61.5349L64.1279 68.698L63.0391 69.738L62.0039 68.6453L51.4883 57.5486L50.4893 56.4949L51.5098 55.4626L58.1074 48.7898L57.084 46.4587H46.5049V28.2019H56.2529L58.0439 24.8806L51.5098 18.2742L50.4893 17.241L51.4883 16.1873L62.0039 5.09155L63.0693 3.96655L64.1592 5.06812L70.7949 11.7791L73.9365 10.6238V-0.000244141H92.9385V10.7ZM83.209 21.3806C74.6243 21.3809 67.6642 28.4182 67.6641 37.0994C67.6641 45.7807 74.6242 52.8189 83.209 52.8191C91.7939 52.8189 98.7529 45.7808 98.7529 37.0994C98.7527 28.4181 91.7938 21.3808 83.209 21.3806Z" fill="#0567B2"/>
</svg>
