<svg width="121" height="120" viewBox="0 0 121 120" fill="none" xmlns="http://www.w3.org/2000/svg">
<path d="M60.5 0C93.6371 0 120.5 26.8629 120.5 60C120.5 93.1369 93.6369 120 60.5 120C27.3631 120 0.500264 93.1369 0.5 60C0.5 26.8629 27.3629 0 60.5 0ZM66.6543 26.1543H54.3467V10.375C31.652 13.1602 13.6612 31.152 10.876 53.8467H26.6543V66.1543H10.876C13.6618 88.8483 31.6525 106.839 54.3467 109.624V93.8457H66.6543V109.624C89.3481 106.838 107.338 88.848 110.124 66.1543H94.3457V53.8467H110.124C107.339 31.1523 89.3486 13.1606 66.6543 10.375V26.1543ZM79.1211 31.4893L68.251 54.0664C70.1181 56.003 71.2685 58.6356 71.2686 61.5381C71.2685 62.2035 71.2044 62.8543 71.0889 63.4863L85.8301 77.1855L79.8701 83.5986L66.0586 70.7617C64.4358 71.7419 62.5341 72.3066 60.5 72.3066C54.5525 72.3065 49.7306 67.4856 49.7305 61.5381C49.7307 55.7184 54.3474 50.9784 60.1182 50.7773L71.2324 27.6914L79.1211 31.4893Z" fill="#0567B2"/>
</svg>
