<svg width="55" height="55" viewBox="0 0 55 55" fill="none" xmlns="http://www.w3.org/2000/svg">
<circle cx="27.5" cy="27.5" r="27.5" fill="#0567B2"/>
<path d="M9.53418 19.9138H16.1721C16.8043 22.2845 18.6376 27.3103 20.9135 28.4483H22.81V22.2845C22.4939 22.1264 21.6721 21.5259 20.9135 20.3879C20.9135 20.0086 21.8618 19.9138 22.3359 19.9138H27.5514C27.8675 19.9138 28.4997 20.1034 28.4997 20.8621V28.4483H31.3445L36.0859 19.9138H42.7238C41.7756 22.4425 39.4049 27.9741 37.5083 29.8707C37.3503 30.3448 38.2669 32.2414 43.198 36.0345V37.931H35.6118L31.3445 34.6121H29.448H28.9738V37.931H25.6549L23.7583 37.4569C20.4394 35.7184 12.5687 30.1552 9.53418 19.9138Z" fill="white"/>
</svg>
